<?xml version="1.0" encoding="UTF-8"?>
<svg id="Layer_2" data-name="Layer 2" xmlns="http://www.w3.org/2000/svg" xmlns:xlink="http://www.w3.org/1999/xlink" viewBox="0 0 1052.61 237.4">
  <defs>
    <style>
      .cls-1 {
        fill: #fff;
      }

      .cls-1, .cls-2, .cls-3, .cls-4 {
        fill-rule: evenodd;
      }

      .cls-2 {
        fill: url(#linear-gradient-2);
      }

      .cls-3 {
        fill: #1f2937;
      }

      .cls-4 {
        fill: url(#linear-gradient);
      }
    </style>
    <linearGradient id="linear-gradient" x1="1172.34" y1="-446.74" x2="1336.31" y2="-677.28" gradientTransform="translate(-277 -501.2) scale(1 -1)" gradientUnits="userSpaceOnUse">
      <stop offset="0" stop-color="#2563eb"/>
      <stop offset="1" stop-color="#60a5fa"/>
    </linearGradient>
    <linearGradient id="linear-gradient-2" x1="1081.07" y1="-511.65" x2="1245.04" y2="-742.19" xlink:href="#linear-gradient"/>
  </defs>
  <g id="Layer_1-2" data-name="Layer 1">
    <g>
      <path class="cls-1" d="M605.65,5.1c3.55,2.42,6.17,5.26,8.11,9.16.08,1.6.11,3.2.11,4.81v3.04c0,1.09,0,2.17-.01,3.29,0,1.11,0,2.22,0,3.36,0,3.55-.02,7.1-.03,10.66,0,2.4-.01,4.81-.01,7.21-.01,5.9-.03,11.8-.05,17.71.69-.44,1.38-.89,2.09-1.34q1.36-.88,2.75-1.77c.9-.58,1.79-1.15,2.72-1.75,12.23-7.55,25.72-8.64,39.68-6.03,8.67,2.13,15.67,5.89,22.29,11.82.58.5,1.16,1.01,1.76,1.53,9.62,8.93,14.34,21.8,15.85,34.63.09,2.57.15,5.11.15,7.67,0,.74,0,1.47.01,2.24.01,2.42.02,4.84.02,7.26,0,1.69.01,3.38.02,5.07.01,3.53.02,7.06.02,10.59,0,4.52.03,9.05.05,13.58.02,3.48.02,6.96.02,10.45,0,1.67,0,3.34.02,5.01.02,2.33.01,4.66,0,6.99,0,.69.02,1.38.03,2.09q-.04,4.63-1.6,6.92c-3.67,2.3-8.89,1.4-13.09,1.38-1.89,0-3.78.02-5.68.05-1.19,0-2.38,0-3.61,0q-1.64,0-3.31,0-2.74-.46-4.28-1.89c-1.71-3.15-1.61-6.04-1.57-9.53,0-.73,0-1.46,0-2.2,0-1.58,0-3.16,0-4.73.01-2.5,0-5.01,0-7.51-.03-7.12-.02-14.23,0-21.35.01-4.35,0-8.71-.03-13.07,0-1.65,0-3.31.01-4.96.08-10.6-.33-18.45-7.47-26.88-6.92-5.74-13.29-8.02-22.23-7.83-5.99.74-12.14,3.32-16.31,7.72-7.48,10.19-7.69,20.46-7.73,32.69,0,2.36-.03,4.71-.05,7.06-.05,5.84-.09,11.67-.12,17.51-.03,4.95-.06,9.91-.11,14.86-.02,2.32-.02,4.64-.03,6.96-.01,1.41-.02,2.82-.04,4.24,0,.65,0,1.29,0,1.96q-.06,4.45-2.12,6.51c-3.82.37-7.64.3-11.47.29-1.9,0-3.8.02-5.7.04h-3.62c-1.1,0-2.2,0-3.33.01q-2.75-.34-4.3-1.36c-1.89-2.69-1.6-4.96-1.61-8.22,0-.66-.01-1.32-.02-2-.02-2.22-.01-4.43,0-6.65,0-1.59-.01-3.17-.02-4.76-.02-4.31-.02-8.63-.02-12.95,0-3.6,0-7.21-.01-10.81-.02-8.51-.02-17.01-.02-25.52,0-8.77-.01-17.54-.05-26.3-.03-7.53-.04-15.06-.04-22.59,0-4.5,0-8.99-.03-13.49-.02-4.23-.02-8.46,0-12.7,0-1.55,0-3.1-.01-4.65q-.11-14.11,3.89-19.52c5.67-5.51,12.79-6.5,20.11-3.96Z"/>
      <path class="cls-1" d="M201.3,62.06c1.31,1.1,2.61,2.22,3.88,3.36.58.5,1.16,1.01,1.76,1.53,9.63,8.92,14.34,21.77,15.86,34.58.09,2.56.15,5.1.15,7.66,0,.74,0,1.47.01,2.23.01,2.42.02,4.83.02,7.25,0,1.68.01,3.37.02,5.06.01,3.52.02,7.05.02,10.57,0,4.52.03,9.04.05,13.56.02,3.48.02,6.95.02,10.43,0,1.67.01,3.33.02,5,.02,2.32.01,4.65,0,6.97,0,.69.02,1.38.03,2.09q-.04,4.62-1.6,6.91c-3.67,2.3-8.89,1.4-13.09,1.37-1.89,0-3.78.02-5.68.05-1.19,0-2.38,0-3.61,0q-1.64,0-3.31,0-2.74-.46-4.28-1.89c-1.71-3.14-1.61-6.03-1.57-9.52,0-.72,0-1.45,0-2.2,0-1.58,0-3.15,0-4.73.01-2.5,0-5,0-7.5-.03-7.11-.02-14.22,0-21.32.01-4.35,0-8.7-.03-13.05,0-1.65,0-3.3.01-4.95.08-10.59-.33-18.43-7.47-26.85-6.92-5.73-13.29-8.01-22.23-7.82-5.99.74-12.14,3.31-16.31,7.7-7.47,10.17-7.69,20.43-7.73,32.64,0,2.35-.03,4.7-.05,7.05-.05,5.83-.08,11.65-.12,17.48-.03,4.95-.07,9.89-.11,14.84-.02,2.32-.03,4.64-.03,6.95-.01,1.41-.02,2.82-.04,4.23,0,.65,0,1.29,0,1.96q-.06,4.44-2.12,6.5c-3.82.37-7.64.3-11.48.29-1.9,0-3.8.02-5.7.04-1.2,0-2.39,0-3.62,0-1.1,0-2.2,0-3.33,0q-2.75-.34-4.3-1.47c-1.64-2.18-1.6-3.51-1.61-6.23-.01-.94-.02-1.89-.03-2.86,0-1.03,0-2.07,0-3.14,0-1.09-.02-2.18-.02-3.3-.02-2.99-.02-5.98-.02-8.97,0-2.5,0-5-.02-7.5-.02-5.9-.02-11.81-.01-17.71,0-6.08-.02-12.16-.05-18.24-.03-5.23-.04-10.45-.04-15.68,0-3.12,0-6.24-.03-9.35-.02-3.48-.01-6.97,0-10.45-.01-1.02-.02-2.05-.04-3.1.07-6.22.94-10.78,5.24-15.47,4.89-3.59,9.77-4.61,15.76-3.71,4.91,1.7,7.13,4.33,10.2,8.33.61.61,1.22,1.22,1.85,1.85.65-.44,1.3-.87,1.97-1.32,5.07-3.32,9.8-6.27,15.65-7.94q.93-.28,1.89-.57c15-3.97,32.81-1.03,45.23,8.32Z"/>
      <path class="cls-1" d="M251.43,54.08c.79,0,1.59-.02,2.41-.02.88,0,1.75,0,2.65-.01.92,0,1.84-.02,2.79-.02,3.06-.02,6.11-.04,9.16-.05,1.04,0,2.09,0,3.16-.01,5.52-.03,11.04-.04,16.56-.06,5.7-.02,11.4-.06,17.1-.11,4.38-.03,8.77-.04,13.15-.05,2.1,0,4.2-.02,6.3-.04,2.95-.03,5.89-.03,8.83-.02.87-.02,1.73-.03,2.62-.05,5.75.05,10.08,1.24,14.38,5.21,2.2,3.62,2.7,6.97,1.85,11.11-3.41,8.02-9.03,14.32-14.74,20.76-2.76,3.13-5.36,6.37-7.92,9.66-3.67,4.72-7.4,9.38-11.18,14-3.74,4.57-7.44,9.17-11.07,13.82-4.52,5.79-9.18,11.45-13.88,17.09-.53.63-1.05,1.27-1.6,1.92-.47.56-.94,1.12-1.42,1.7-1.1,1.39-2.11,2.86-3.09,4.33q1.01,0,2.04-.02c6.35-.05,12.71-.1,19.07-.12,3.27-.02,6.53-.04,9.8-.07,3.76-.04,7.52-.05,11.28-.06,1.17-.02,2.34-.03,3.54-.05h3.32c.96,0,1.92-.01,2.91-.02,4.44.54,7.44,2.17,10.45,5.42,2.62,3.88,2.8,6.96,2.49,11.57-1.62,4.33-3.59,6.68-7.42,9.25-2.54.85-4.05,1.05-6.67,1.06q-1.19.01-2.4.02c-.87,0-1.73,0-2.62,0-.91,0-1.83.01-2.77.02-3.03.02-6.06.03-9.09.04q-1.55,0-3.13.01c-5.47.02-10.94.03-16.41.04-5.65.01-11.31.04-16.96.08-4.35.02-8.69.03-13.04.04-2.09,0-4.17.01-6.25.03-2.92.02-5.83.02-8.75.01q-1.29.02-2.61.04c-5.16-.04-8.14-.72-12.23-4.17-2.85-3.31-3.39-6.44-3.21-10.7,1.52-8.06,8.27-14.39,13.48-20.39,2.67-3.08,5.19-6.25,7.69-9.46,3.69-4.73,7.44-9.41,11.24-14.06,3.74-4.57,7.44-9.17,11.07-13.82,4.5-5.76,9.13-11.39,13.8-17.01.52-.63,1.05-1.26,1.59-1.91.46-.56.93-1.11,1.41-1.69,1.42-1.75,2.78-3.55,4.13-5.36q-1.02,0-2.07,0c-6.45,0-12.9-.02-19.35-.08-3.31-.03-6.63-.04-9.95-.04-3.2,0-6.41-.01-9.61-.05-1.81-.02-3.62,0-5.43.01-6.13-.1-10.16-.36-14.56-4.86-3.19-4.05-3.55-6.72-3.49-11.76.82-4.48,3.58-7.19,6.98-10.06,2.11-1.06,3.3-1.05,5.65-1.07Z"/>
      <path class="cls-1" d="M24.93,7.35c1.41,0,2.82,0,4.23,0,2.94,0,5.89.01,8.83.03,3.76.03,7.53.02,11.29.01,2.91,0,5.81,0,8.72.01,1.39,0,2.78,0,4.16,0,1.94,0,3.88.01,5.83.03,1.1,0,2.21,0,3.34.02,4.01.47,7.15,1.79,10.12,4.56,3.51,4.59,4.78,7.57,4.03,13.41-1.9,5.41-4.26,6.86-9.25,10.2h-19.43v115.88h17.58q8.23,4.12,10.18,8.34c.85,4.58,1.11,9-1.09,13.22-2.67,3.3-5.05,4.9-9.09,6.25q-2.97.26-6.35.3c-.62,0-1.24.02-1.88.03-2.04.03-4.08.04-6.13.05-.7,0-1.4.01-2.12.02-3.71.03-7.42.05-11.13.05-3.82.01-7.64.05-11.45.11-2.95.04-5.9.04-8.85.05-1.41,0-2.81.02-4.22.05q-13.25.21-18.81-4.8c-3.26-3.7-3.5-7.55-3.38-12.33.46-3.29,1.82-5.15,3.99-7.61q5.55-3.71,24.99-3.71V35.62H8.68Q.67,28.74,0,21.83c.13-4.04,1.24-7.36,4.05-10.31,6.26-4.95,13.28-4.23,20.88-4.17Z"/>
      <path class="cls-1" d="M760.81,20.52c4.03,2.62,7.06,5.94,8.59,10.54.08,1.78.1,3.56.09,5.34,0,1.04,0,2.07,0,3.14q-.01,1.62-.02,3.28c0,1.09,0,2.18-.01,3.31-.01,2.7-.03,5.4-.05,8.1,1-.06,1.99-.13,3.02-.2q12.03-.55,15.9,2.74c3.01,3.18,4.23,5.94,4.59,10.31-.11,3.72-1,6.24-3.08,9.38-4.64,4.28-7.9,4.75-14.11,4.69-1.18,0-2.36-.02-3.58-.03-.91-.01-1.81-.02-2.75-.03,0,1.2.01,2.4.02,3.64.06,11.3.1,22.6.13,33.9.01,5.81.04,11.62.06,17.43.03,5.61.05,11.21.05,16.81,0,2.14.02,4.28.03,6.42.02,2.99.02,5.99.02,8.98,0,.89.02,1.78.03,2.7q0,1.22-.01,2.47c0,.71,0,1.41,0,2.15-.44,2.37-1.22,3.19-3.13,4.63q-2.76.34-6.1.34c-1.2,0-2.4,0-3.63,0-.62,0-1.25-.02-1.89-.02-1.91-.02-3.81-.02-5.72-.01q-9.35-.05-11.46-2.15-.23-1.75-.22-3.92c0-.82,0-1.64,0-2.49,0-.9.01-1.81.02-2.74v-2.88c0-3.15.02-6.3.03-9.44,0-2.18,0-4.36,0-6.54,0-5.74.03-11.49.05-17.23.02-5.86.03-11.71.04-17.57.02-11.5.05-22.99.09-34.49-1.01.04-2.02.09-3.06.13-1.34.03-2.68.07-4.03.1-.66.03-1.33.06-2.01.09-4.85.09-7.47-.88-11.35-4.03-3.34-3.67-3.26-7.61-3.11-12.36.58-4.4,2.57-6.89,6.01-9.55,3.49-1.64,6.62-1.56,10.39-1.43q1.03.02,2.08.04c1.69.03,3.37.08,5.06.14q-.05-1.08-.09-2.18c-.12-3.29-.19-6.58-.26-9.86-.05-1.13-.09-2.26-.14-3.43-.11-6.49.23-10.64,4.6-15.61,5.29-4.87,12.44-5.96,18.88-2.62Z"/>
      <path class="cls-1" d="M490.41,81.28c-7.54.6-14.95,3.62-21.43,8.45-6.97,6.28-10.26,14.94-11.12,24.06-.55,11.84,1.41,22.03,9.17,31.37,7.72,7.71,16,10.24,26.63,10.51,10.16-.24,16.99-3.61,24.15-10.82,8.51-10.01,9.59-21.12,8.85-33.73-1.12-9.86-6.54-17.51-14.01-23.79-7.01-4.84-14.69-6.66-22.23-6.06ZM490.72,52.32c12.49.6,24.73,5.21,34.93,13.94.92.61,1.84,1.22,2.78,1.85-.1-.78-.19-1.57-.29-2.37.39-4.29,1.91-6.63,4.92-9.66,3.67-2.79,7.01-4.02,11.64-3.7,4.79.85,8.61,2.39,11.88,6.07,3.88,5.57,4,10.46,3.92,17.1,0,1.09.01,2.19.02,3.32,0,2.99,0,5.98-.02,8.97-.02,3.15-.01,6.3-.01,9.45,0,5.3-.02,10.59-.05,15.89-.04,6.09-.04,12.17-.04,18.26,0,5.89,0,11.78-.02,17.67,0,2.49,0,4.97,0,7.46-.01,24.05-1.44,45.18-18.73,63.55-7.23,6.97-15.78,10.66-25.25,13.65q-1.2.42-2.43.84c-18.82,5.73-43.96,2.15-61.25-6.77-5.71-3.22-9.63-6.48-12.3-12.58-.66-4.23-.39-7.51,1.45-11.4,3.62-3.99,6.72-5.83,12.04-6.77,5,.24,9.44,2.67,13.92,4.71,12.46,5.59,27.5,7.62,40.8,3.73,6.31-2.53,11.57-6.16,14.62-12.36.92-2.49,1.71-4.97,2.4-7.53.31-.92.61-1.83.93-2.78.21-2.37.39-4.73.52-7.11.04-.65.08-1.3.12-1.97.1-1.6.19-3.2.29-4.8q-.98.74-1.97,1.49c-13.78,10.25-27.97,14.98-45.28,13.32-15.31-2.6-29.15-9.83-38.46-22.49-11.92-17.19-14.86-37.54-12.07-58.06,3.15-16.52,11.33-30.49,24.65-40.75,11.15-7.35,23.87-10.77,36.36-10.18Z"/>
      <path class="cls-1" d="M394.25,53.21c5.25,2.41,8.08,5.77,10.18,11.12.41,3.66.38,7.29.36,10.97,0,1.1.01,2.2.02,3.33.01,3,0,6.01,0,9.01,0,3.15,0,6.29,0,9.44,0,5.28,0,10.56-.02,15.84-.01,6.11,0,12.21,0,18.31.01,5.25.02,10.49,0,15.74,0,3.13,0,6.26,0,9.39,0,3.49,0,6.97-.02,10.46q0,1.56.02,3.15c0,.95-.02,1.89-.02,2.87,0,.82,0,1.65,0,2.5-.43,2.54-1.07,3.37-3.13,4.88q-2.75.34-6.08.34-1.79,0-3.62,0c-.62,0-1.24-.02-1.88-.02-1.9-.02-3.8-.02-5.7-.01q-9.32-.05-11.42-2.15-.24-2.01-.25-4.55c0-.96-.02-1.92-.02-2.92,0-1.06,0-2.12,0-3.21,0-1.11-.01-2.23-.02-3.37-.01-3.06-.02-6.11-.02-9.17,0-2.55,0-5.1-.02-7.66-.01-6.03-.02-12.05-.02-18.07,0-6.21-.02-12.42-.05-18.63-.02-5.33-.04-10.67-.03-16,0-3.18,0-6.37-.02-9.55-.02-3.55-.01-7.11,0-10.67q-.02-1.58-.03-3.19c.05-5.73.32-9.19,4.19-13.53,5.64-4.97,10.15-5.62,17.59-4.64Z"/>
      <path class="cls-1" d="M983.66,90.23c-2.71.34-5.37,1.05-7.93,2.2-.6.33-1.18.64-1.76.96-3.06,1.63-5.83,3.39-8.53,5.56-6.83,6.75-10.54,14.7-10.84,24.22.42,10.04,4.54,17.97,11.92,24.99,9.23,7.5,18.58,8.18,30.18,7.34,8.25-1.4,14.91-7.35,19.78-13.73,5.43-8.16,7.21-16.84,5.39-26.45-2.31-7.97-7.53-15.21-14.55-19.84-7.05-3.9-15.55-6.25-23.67-5.24ZM1037.64,7.25c7.22-.1,14.5,4.35,14.75,13.65.5,18.59,0,105.83,0,158.75h-30.06v-7.72l-2.27,1.03c-14.96,6.59-30.29,9.2-46.58,4.97l-2.08-.51c-15.48-4.2-28.72-13.99-36.62-26.79-.69-1.18-1.37-2.36-2.05-3.55l-.95-1.64c-6.22-11.54-6.65-28.35-2.86-40.62,6.87-16.62,20.41-28.97,37.9-36.52,13.57-5.02,29.86-5.59,43.52-.51,4.37,1.7,8.69,3.5,12.93,5.44V20.9c0-8.9,7.15-13.55,14.37-13.65Z"/>
      <path class="cls-1" d="M824.99,7.66c.89,0,1.77-.01,2.68-.02,2.94-.02,5.87-.04,8.81-.05,1,0,2.01,0,3.04-.01,5.31-.02,10.62-.04,15.93-.05,5.48-.01,10.96-.05,16.44-.1,4.22-.03,8.43-.04,12.65-.04,2.02,0,4.04-.02,6.06-.04,2.83-.03,5.66-.03,8.49-.02q1.25-.02,2.52-.04c5.79.06,9.17,1.43,13.94,5.04,2.83,4.35,3.67,8.24,3.45,13.47-.85,5.16-3.62,8.16-7.3,11.29-3.86,2.37-6.03,2.62-10.44,2.58q-1.01,0-2.05,0c-2.21,0-4.43-.04-6.64-.07-1.54,0-3.09-.01-4.63-.02-4.04-.02-8.08-.06-12.13-.11-4.86-.05-9.72-.07-14.58-.1-7.37-.04-14.74-.13-22.1-.21v40.27c4.64-.04,9.27-.08,14.05-.12,3.7-.02,7.41-.04,11.11-.05,3.9-.02,7.81-.04,11.71-.08,3.76-.04,7.52-.06,11.29-.06,1.44,0,2.87-.02,4.3-.04,2.01-.02,4.02-.02,6.03-.02,1.15,0,2.29-.02,3.47-.02,4.38.57,7.09,2.43,10.1,5.87,2.27,4.29,1.76,8.76,1.25,13.55-1.73,5.43-3.54,7.57-8.26,10.07q-3.09.4-6.56.38-1.95,0-3.95,0c-1.41-.02-2.82-.04-4.23-.05-1.45,0-2.9-.01-4.35-.02-3.81-.01-7.62-.04-11.42-.08-3.89-.04-7.78-.05-11.67-.07-7.62-.04-15.24-.1-22.87-.16v40.27c4.92-.05,9.84-.11,14.91-.16,3.13-.02,6.25-.04,9.37-.06,4.96-.03,9.91-.06,14.87-.12,4-.05,7.99-.08,11.99-.09,1.52,0,3.05-.02,4.57-.05,2.14-.03,4.27-.04,6.41-.04q1.82-.01,3.68-.03c5.37.86,8.53,3.72,12.02,8.09,2.01,4.35,2.51,7.86,1.68,12.59-1.86,5.4-4.43,8.78-9.29,11.18-3.08.33-5.94.48-9.02.47-.9.01-1.79.02-2.72.03-2.96.03-5.92.03-8.88.03-2.06,0-4.12.02-6.18.02-4.32.02-8.63.02-12.95.01-5.53,0-11.06.03-16.58.07-4.26.03-8.51.03-12.77.03-2.04,0-4.08.01-6.11.04-2.85.02-5.7.01-8.55,0q-1.26.02-2.54.05c-4.2-.07-6.87-.49-10.22-3.36-3.64-4.16-3.75-7.06-3.78-12.58-.01-1.3-.02-2.61-.03-3.95,0-1.43-.01-2.86-.01-4.34,0-1.52-.02-3.04-.03-4.57-.03-5-.04-9.99-.06-14.99,0-1.72-.01-3.44-.02-5.16-.02-7.16-.04-14.32-.05-21.48-.02-10.25-.05-20.51-.11-30.77-.04-7.21-.06-14.43-.06-21.64,0-4.31-.02-8.61-.05-12.92-.03-4.05-.04-8.11-.02-12.16,0-2.19-.02-4.38-.05-6.58q.07-10.75,3.14-14.89c4.38-4.08,7.73-3.79,13.29-3.81Z"/>
      <path class="cls-1" d="M397.57,2.21c4.48,2.85,7.57,6.18,9.5,11.16.76,5.25.58,10.06-.93,15.15-3.32,4.35-7.34,8.96-12.97,9.83-7.13.62-12.52-.15-18.24-4.8-4.13-5.01-6.55-9.66-6.2-16.27,1.03-6.07,4.16-10.2,8.96-13.92,6.01-4.17,13.33-4.36,19.88-1.16Z"/>
    </g>
    <g>
      <path class="cls-3" d="M605.65,5.1c3.55,2.42,6.17,5.26,8.11,9.16.08,1.6.11,3.2.11,4.81v3.04c0,1.09,0,2.17-.01,3.29,0,1.11,0,2.22,0,3.36,0,3.55-.02,7.1-.03,10.66,0,2.4-.01,4.81-.01,7.21-.01,5.9-.03,11.8-.05,17.71.69-.44,1.38-.89,2.09-1.34q1.36-.88,2.75-1.77c.9-.58,1.79-1.15,2.72-1.75,12.23-7.55,25.72-8.64,39.68-6.03,8.67,2.13,15.67,5.89,22.29,11.82.58.5,1.16,1.01,1.76,1.53,9.62,8.93,14.34,21.8,15.85,34.63.09,2.57.15,5.11.15,7.67,0,.74,0,1.47.01,2.24.01,2.42.02,4.84.02,7.26,0,1.69.01,3.38.02,5.07.01,3.53.02,7.06.02,10.59,0,4.52.03,9.05.05,13.58.02,3.48.02,6.96.02,10.45,0,1.67,0,3.34.02,5.01.02,2.33.01,4.66,0,6.99,0,.69.02,1.38.03,2.09q-.04,4.63-1.6,6.92c-3.67,2.3-8.89,1.4-13.09,1.38-1.89,0-3.78.02-5.68.05-1.19,0-2.38,0-3.61,0q-1.64,0-3.31,0-2.74-.46-4.28-1.89c-1.71-3.15-1.61-6.04-1.57-9.53,0-.73,0-1.46,0-2.2,0-1.58,0-3.16,0-4.73.01-2.5,0-5.01,0-7.51-.03-7.12-.02-14.23,0-21.35.01-4.35,0-8.71-.03-13.07,0-1.65,0-3.31.01-4.96.08-10.6-.33-18.45-7.47-26.88-6.92-5.74-13.29-8.02-22.23-7.83-5.99.74-12.14,3.32-16.31,7.72-7.48,10.19-7.69,20.46-7.73,32.69,0,2.36-.03,4.71-.05,7.06-.05,5.84-.09,11.67-.12,17.51-.03,4.95-.06,9.91-.11,14.86-.02,2.32-.02,4.64-.03,6.96-.01,1.41-.02,2.82-.04,4.24,0,.65,0,1.29,0,1.96q-.06,4.45-2.12,6.51c-3.82.37-7.64.3-11.47.29-1.9,0-3.8.02-5.7.04h-3.62c-1.1,0-2.2,0-3.33.01q-2.75-.34-4.3-1.36c-1.89-2.69-1.6-4.96-1.61-8.22,0-.66-.01-1.32-.02-2-.02-2.22-.01-4.43,0-6.65,0-1.59-.01-3.17-.02-4.76-.02-4.31-.02-8.63-.02-12.95,0-3.6,0-7.21-.01-10.81-.02-8.51-.02-17.01-.02-25.52,0-8.77-.01-17.54-.05-26.3-.03-7.53-.04-15.06-.04-22.59,0-4.5,0-8.99-.03-13.49-.02-4.23-.02-8.46,0-12.7,0-1.55,0-3.1-.01-4.65q-.11-14.11,3.89-19.52c5.67-5.51,12.79-6.5,20.11-3.96Z"/>
      <path class="cls-3" d="M201.3,62.06c1.31,1.1,2.61,2.22,3.88,3.36.58.5,1.16,1.01,1.76,1.53,9.63,8.92,14.34,21.77,15.86,34.58.09,2.56.15,5.1.15,7.66,0,.74,0,1.47.01,2.23.01,2.42.02,4.83.02,7.25,0,1.68.01,3.37.02,5.06.01,3.52.02,7.05.02,10.57,0,4.52.03,9.04.05,13.56.02,3.48.02,6.95.02,10.43,0,1.67.01,3.33.02,5,.02,2.32.01,4.65,0,6.97,0,.69.02,1.38.03,2.09q-.04,4.62-1.6,6.91c-3.67,2.3-8.89,1.4-13.09,1.37-1.89,0-3.78.02-5.68.05-1.19,0-2.38,0-3.61,0q-1.64,0-3.31,0-2.74-.46-4.28-1.89c-1.71-3.14-1.61-6.03-1.57-9.52,0-.72,0-1.45,0-2.2,0-1.58,0-3.15,0-4.73.01-2.5,0-5,0-7.5-.03-7.11-.02-14.22,0-21.32.01-4.35,0-8.7-.03-13.05,0-1.65,0-3.3.01-4.95.08-10.59-.33-18.43-7.47-26.85-6.92-5.73-13.29-8.01-22.23-7.82-5.99.74-12.14,3.31-16.31,7.7-7.47,10.17-7.69,20.43-7.73,32.64,0,2.35-.03,4.7-.05,7.05-.05,5.83-.08,11.65-.12,17.48-.03,4.95-.07,9.89-.11,14.84-.02,2.32-.03,4.64-.03,6.95-.01,1.41-.02,2.82-.04,4.23,0,.65,0,1.29,0,1.96q-.06,4.44-2.12,6.5c-3.82.37-7.64.3-11.48.29-1.9,0-3.8.02-5.7.04-1.2,0-2.39,0-3.62,0-1.1,0-2.2,0-3.33,0q-2.75-.34-4.3-1.47c-1.64-2.18-1.6-3.51-1.61-6.23-.01-.94-.02-1.89-.03-2.86,0-1.03,0-2.07,0-3.14,0-1.09-.02-2.18-.02-3.3-.02-2.99-.02-5.98-.02-8.97,0-2.5,0-5-.02-7.5-.02-5.9-.02-11.81-.01-17.71,0-6.08-.02-12.16-.05-18.24-.03-5.23-.04-10.45-.04-15.68,0-3.12,0-6.24-.03-9.35-.02-3.48-.01-6.97,0-10.45-.01-1.02-.02-2.05-.04-3.1.07-6.22.94-10.78,5.24-15.47,4.89-3.59,9.77-4.61,15.76-3.71,4.91,1.7,7.13,4.33,10.2,8.33.61.61,1.22,1.22,1.85,1.85.65-.44,1.3-.87,1.97-1.32,5.07-3.32,9.8-6.27,15.65-7.94q.93-.28,1.89-.57c15-3.97,32.81-1.03,45.23,8.32Z"/>
      <path class="cls-3" d="M251.43,54.08c.79,0,1.59-.02,2.41-.02.88,0,1.75,0,2.65-.01.92,0,1.84-.02,2.79-.02,3.06-.02,6.11-.04,9.16-.05,1.04,0,2.09,0,3.16-.01,5.52-.03,11.04-.04,16.56-.06,5.7-.02,11.4-.06,17.1-.11,4.38-.03,8.77-.04,13.15-.05,2.1,0,4.2-.02,6.3-.04,2.95-.03,5.89-.03,8.83-.02.87-.02,1.73-.03,2.62-.05,5.75.05,10.08,1.24,14.38,5.21,2.2,3.62,2.7,6.97,1.85,11.11-3.41,8.02-9.03,14.32-14.74,20.76-2.76,3.13-5.36,6.37-7.92,9.66-3.67,4.72-7.4,9.38-11.18,14-3.74,4.57-7.44,9.17-11.07,13.82-4.52,5.79-9.18,11.45-13.88,17.09-.53.63-1.05,1.27-1.6,1.92-.47.56-.94,1.12-1.42,1.7-1.1,1.39-2.11,2.86-3.09,4.33q1.01,0,2.04-.02c6.35-.05,12.71-.1,19.07-.12,3.27-.02,6.53-.04,9.8-.07,3.76-.04,7.52-.05,11.28-.06,1.17-.02,2.34-.03,3.54-.05h3.32c.96,0,1.92-.01,2.91-.02,4.44.54,7.44,2.17,10.45,5.42,2.62,3.88,2.8,6.96,2.49,11.57-1.62,4.33-3.59,6.68-7.42,9.25-2.54.85-4.05,1.05-6.67,1.06q-1.19.01-2.4.02c-.87,0-1.73,0-2.62,0-.91,0-1.83.01-2.77.02-3.03.02-6.06.03-9.09.04q-1.55,0-3.13.01c-5.47.02-10.94.03-16.41.04-5.65.01-11.31.04-16.96.08-4.35.02-8.69.03-13.04.04-2.09,0-4.17.01-6.25.03-2.92.02-5.83.02-8.75.01q-1.29.02-2.61.04c-5.16-.04-8.14-.72-12.23-4.17-2.85-3.31-3.39-6.44-3.21-10.7,1.52-8.06,8.27-14.39,13.48-20.39,2.67-3.08,5.19-6.25,7.69-9.46,3.69-4.73,7.44-9.41,11.24-14.06,3.74-4.57,7.44-9.17,11.07-13.82,4.5-5.76,9.13-11.39,13.8-17.01.52-.63,1.05-1.26,1.59-1.91.46-.56.93-1.11,1.41-1.69,1.42-1.75,2.78-3.55,4.13-5.36q-1.02,0-2.07,0c-6.45,0-12.9-.02-19.35-.08-3.31-.03-6.63-.04-9.95-.04-3.2,0-6.41-.01-9.61-.05-1.81-.02-3.62,0-5.43.01-6.13-.1-10.16-.36-14.56-4.86-3.19-4.05-3.55-6.72-3.49-11.76.82-4.48,3.58-7.19,6.98-10.06,2.11-1.06,3.3-1.05,5.65-1.07Z"/>
      <path class="cls-3" d="M24.93,7.35c1.41,0,2.82,0,4.23,0,2.94,0,5.89.01,8.83.03,3.76.03,7.53.02,11.29.01,2.91,0,5.81,0,8.72.01,1.39,0,2.78,0,4.16,0,1.94,0,3.88.01,5.83.03,1.1,0,2.21,0,3.34.02,4.01.47,7.15,1.79,10.12,4.56,3.51,4.59,4.78,7.57,4.03,13.41-1.9,5.41-4.26,6.86-9.25,10.2h-19.43v115.88h17.58q8.23,4.12,10.18,8.34c.85,4.58,1.11,9-1.09,13.22-2.67,3.3-5.05,4.9-9.09,6.25q-2.97.26-6.35.3c-.62,0-1.24.02-1.88.03-2.04.03-4.08.04-6.13.05-.7,0-1.4.01-2.12.02-3.71.03-7.42.05-11.13.05-3.82.01-7.64.05-11.45.11-2.95.04-5.9.04-8.85.05-1.41,0-2.81.02-4.22.05q-13.25.21-18.81-4.8c-3.26-3.7-3.5-7.55-3.38-12.33.46-3.29,1.82-5.15,3.99-7.61q5.55-3.71,24.99-3.71V35.62H8.68Q.67,28.74,0,21.83c.13-4.04,1.24-7.36,4.05-10.31,6.26-4.95,13.28-4.23,20.88-4.17Z"/>
      <path class="cls-3" d="M760.81,20.52c4.03,2.62,7.06,5.94,8.59,10.54.08,1.78.1,3.56.09,5.34,0,1.04,0,2.07,0,3.14q-.01,1.62-.02,3.28c0,1.09,0,2.18-.01,3.31-.01,2.7-.03,5.4-.05,8.1,1-.06,1.99-.13,3.02-.2q12.03-.55,15.9,2.74c3.01,3.18,4.23,5.94,4.59,10.31-.11,3.72-1,6.24-3.08,9.38-4.64,4.28-7.9,4.75-14.11,4.69-1.18,0-2.36-.02-3.58-.03-.91-.01-1.81-.02-2.75-.03,0,1.2.01,2.4.02,3.64.06,11.3.1,22.6.13,33.9.01,5.81.04,11.62.06,17.43.03,5.61.05,11.21.05,16.81,0,2.14.02,4.28.03,6.42.02,2.99.02,5.99.02,8.98,0,.89.02,1.78.03,2.7q0,1.22-.01,2.47c0,.71,0,1.41,0,2.15-.44,2.37-1.22,3.19-3.13,4.63q-2.76.34-6.1.34c-1.2,0-2.4,0-3.63,0-.62,0-1.25-.02-1.89-.02-1.91-.02-3.81-.02-5.72-.01q-9.35-.05-11.46-2.15-.23-1.75-.22-3.92c0-.82,0-1.64,0-2.49,0-.9.01-1.81.02-2.74v-2.88c0-3.15.02-6.3.03-9.44,0-2.18,0-4.36,0-6.54,0-5.74.03-11.49.05-17.23.02-5.86.03-11.71.04-17.57.02-11.5.05-22.99.09-34.49-1.01.04-2.02.09-3.06.13-1.34.03-2.68.07-4.03.1-.66.03-1.33.06-2.01.09-4.85.09-7.47-.88-11.35-4.03-3.34-3.67-3.26-7.61-3.11-12.36.58-4.4,2.57-6.89,6.01-9.55,3.49-1.64,6.62-1.56,10.39-1.43q1.03.02,2.08.04c1.69.03,3.37.08,5.06.14q-.05-1.08-.09-2.18c-.12-3.29-.19-6.58-.26-9.86-.05-1.13-.09-2.26-.14-3.43-.11-6.49.23-10.64,4.6-15.61,5.29-4.87,12.44-5.96,18.88-2.62Z"/>
      <path class="cls-3" d="M490.41,81.28c-7.54.6-14.95,3.62-21.43,8.45-6.97,6.28-10.26,14.94-11.12,24.06-.55,11.84,1.41,22.03,9.17,31.37,7.72,7.71,16,10.24,26.63,10.51,10.16-.24,16.99-3.61,24.15-10.82,8.51-10.01,9.59-21.12,8.85-33.73-1.12-9.86-6.54-17.51-14.01-23.79-7.01-4.84-14.69-6.66-22.23-6.06ZM490.72,52.32c12.49.6,24.73,5.21,34.93,13.94.92.61,1.84,1.22,2.78,1.85-.1-.78-.19-1.57-.29-2.37.39-4.29,1.91-6.63,4.92-9.66,3.67-2.79,7.01-4.02,11.64-3.7,4.79.85,8.61,2.39,11.88,6.07,3.88,5.57,4,10.46,3.92,17.1,0,1.09.01,2.19.02,3.32,0,2.99,0,5.98-.02,8.97-.02,3.15-.01,6.3-.01,9.45,0,5.3-.02,10.59-.05,15.89-.04,6.09-.04,12.17-.04,18.26,0,5.89,0,11.78-.02,17.67,0,2.49,0,4.97,0,7.46-.01,24.05-1.44,45.18-18.73,63.55-7.23,6.97-15.78,10.66-25.25,13.65q-1.2.42-2.43.84c-18.82,5.73-43.96,2.15-61.25-6.77-5.71-3.22-9.63-6.48-12.3-12.58-.66-4.23-.39-7.51,1.45-11.4,3.62-3.99,6.72-5.83,12.04-6.77,5,.24,9.44,2.67,13.92,4.71,12.46,5.59,27.5,7.62,40.8,3.73,6.31-2.53,11.57-6.16,14.62-12.36.92-2.49,1.71-4.97,2.4-7.53.31-.92.61-1.83.93-2.78.21-2.37.39-4.73.52-7.11.04-.65.08-1.3.12-1.97.1-1.6.19-3.2.29-4.8q-.98.74-1.97,1.49c-13.78,10.25-27.97,14.98-45.28,13.32-15.31-2.6-29.15-9.83-38.46-22.49-11.92-17.19-14.86-37.54-12.07-58.06,3.15-16.52,11.33-30.49,24.65-40.75,11.15-7.35,23.87-10.77,36.36-10.18Z"/>
      <path class="cls-3" d="M394.25,53.21c5.25,2.41,8.08,5.77,10.18,11.12.41,3.66.38,7.29.36,10.97,0,1.1.01,2.2.02,3.33.01,3,0,6.01,0,9.01,0,3.15,0,6.29,0,9.44,0,5.28,0,10.56-.02,15.84-.01,6.11,0,12.21,0,18.31.01,5.25.02,10.49,0,15.74,0,3.13,0,6.26,0,9.39,0,3.49,0,6.97-.02,10.46q0,1.56.02,3.15c0,.95-.02,1.89-.02,2.87,0,.82,0,1.65,0,2.5-.43,2.54-1.07,3.37-3.13,4.88q-2.75.34-6.08.34-1.79,0-3.62,0c-.62,0-1.24-.02-1.88-.02-1.9-.02-3.8-.02-5.7-.01q-9.32-.05-11.42-2.15-.24-2.01-.25-4.55c0-.96-.02-1.92-.02-2.92,0-1.06,0-2.12,0-3.21,0-1.11-.01-2.23-.02-3.37-.01-3.06-.02-6.11-.02-9.17,0-2.55,0-5.1-.02-7.66-.01-6.03-.02-12.05-.02-18.07,0-6.21-.02-12.42-.05-18.63-.02-5.33-.04-10.67-.03-16,0-3.18,0-6.37-.02-9.55-.02-3.55-.01-7.11,0-10.67q-.02-1.58-.03-3.19c.05-5.73.32-9.19,4.19-13.53,5.64-4.97,10.15-5.62,17.59-4.64Z"/>
      <path class="cls-4" d="M983.66,90.23c-2.71.34-5.37,1.05-7.93,2.2-.6.33-1.18.64-1.76.96-3.06,1.63-5.83,3.39-8.53,5.56-6.83,6.75-10.54,14.7-10.84,24.22.42,10.04,4.54,17.97,11.92,24.99,9.23,7.5,18.58,8.18,30.18,7.34,8.25-1.4,14.91-7.35,19.78-13.73,5.43-8.16,7.21-16.84,5.39-26.45-2.31-7.97-7.53-15.21-14.55-19.84-7.05-3.9-15.55-6.25-23.67-5.24ZM1037.64,7.25c7.22-.1,14.5,4.35,14.75,13.65.5,18.59,0,105.83,0,158.75h-30.06v-7.72l-2.27,1.03c-14.96,6.59-30.29,9.2-46.58,4.97l-2.08-.51c-15.48-4.2-28.72-13.99-36.62-26.79-.69-1.18-1.37-2.36-2.05-3.55l-.95-1.64c-6.22-11.54-6.65-28.35-2.86-40.62,6.87-16.62,20.41-28.97,37.9-36.52,13.57-5.02,29.86-5.59,43.52-.51,4.37,1.7,8.69,3.5,12.93,5.44V20.9c0-8.9,7.15-13.55,14.37-13.65Z"/>
      <path class="cls-2" d="M824.99,7.66c.89,0,1.77-.01,2.68-.02,2.94-.02,5.87-.04,8.81-.05,1,0,2.01,0,3.04-.01,5.31-.02,10.62-.04,15.93-.05,5.48-.01,10.96-.05,16.44-.1,4.22-.03,8.43-.04,12.65-.04,2.02,0,4.04-.02,6.06-.04,2.83-.03,5.66-.03,8.49-.02q1.25-.02,2.52-.04c5.79.06,9.17,1.43,13.94,5.04,2.83,4.35,3.67,8.24,3.45,13.47-.85,5.16-3.62,8.16-7.3,11.29-3.86,2.37-6.03,2.62-10.44,2.58q-1.01,0-2.05,0c-2.21,0-4.43-.04-6.64-.07-1.54,0-3.09-.01-4.63-.02-4.04-.02-8.08-.06-12.13-.11-4.86-.05-9.72-.07-14.58-.1-7.37-.04-14.74-.13-22.1-.21v40.27c4.64-.04,9.27-.08,14.05-.12,3.7-.02,7.41-.04,11.11-.05,3.9-.02,7.81-.04,11.71-.08,3.76-.04,7.52-.06,11.29-.06,1.44,0,2.87-.02,4.3-.04,2.01-.02,4.02-.02,6.03-.02,1.15,0,2.29-.02,3.47-.02,4.38.57,7.09,2.43,10.1,5.87,2.27,4.29,1.76,8.76,1.25,13.55-1.73,5.43-3.54,7.57-8.26,10.07q-3.09.4-6.56.38-1.95,0-3.95,0c-1.41-.02-2.82-.04-4.23-.05-1.45,0-2.9-.01-4.35-.02-3.81-.01-7.62-.04-11.42-.08-3.89-.04-7.78-.05-11.67-.07-7.62-.04-15.24-.1-22.87-.16v40.27c4.92-.05,9.84-.11,14.91-.16,3.13-.02,6.25-.04,9.37-.06,4.96-.03,9.91-.06,14.87-.12,4-.05,7.99-.08,11.99-.09,1.52,0,3.05-.02,4.57-.05,2.14-.03,4.27-.04,6.41-.04q1.82-.01,3.68-.03c5.37.86,8.53,3.72,12.02,8.09,2.01,4.35,2.51,7.86,1.68,12.59-1.86,5.4-4.43,8.78-9.29,11.18-3.08.33-5.94.48-9.02.47-.9.01-1.79.02-2.72.03-2.96.03-5.92.03-8.88.03-2.06,0-4.12.02-6.18.02-4.32.02-8.63.02-12.95.01-5.53,0-11.06.03-16.58.07-4.26.03-8.51.03-12.77.03-2.04,0-4.08.01-6.11.04-2.85.02-5.7.01-8.55,0q-1.26.02-2.54.05c-4.2-.07-6.87-.49-10.22-3.36-3.64-4.16-3.75-7.06-3.78-12.58-.01-1.3-.02-2.61-.03-3.95,0-1.43-.01-2.86-.01-4.34,0-1.52-.02-3.04-.03-4.57-.03-5-.04-9.99-.06-14.99,0-1.72-.01-3.44-.02-5.16-.02-7.16-.04-14.32-.05-21.48-.02-10.25-.05-20.51-.11-30.77-.04-7.21-.06-14.43-.06-21.64,0-4.31-.02-8.61-.05-12.92-.03-4.05-.04-8.11-.02-12.16,0-2.19-.02-4.38-.05-6.58q.07-10.75,3.14-14.89c4.38-4.08,7.73-3.79,13.29-3.81Z"/>
      <path class="cls-3" d="M397.57,2.21c4.48,2.85,7.57,6.18,9.5,11.16.76,5.25.58,10.06-.93,15.15-3.32,4.35-7.34,8.96-12.97,9.83-7.13.62-12.52-.15-18.24-4.8-4.13-5.01-6.55-9.66-6.2-16.27,1.03-6.07,4.16-10.2,8.96-13.92,6.01-4.17,13.33-4.36,19.88-1.16Z"/>
    </g>
  </g>
</svg>