<svg xmlns="http://www.w3.org/2000/svg" xmlns:xlink="http://www.w3.org/1999/xlink" viewBox="0 0 370.5 370.5"><defs><style>.cls-1{fill:#fff;}.cls-2,.cls-3{fill-rule:evenodd;}.cls-2{fill:url(#linear-gradient);}.cls-3{fill:url(#linear-gradient-2);}</style><linearGradient id="linear-gradient" x1="418.29" y1="55.18" x2="588.41" y2="-184.01" gradientTransform="matrix(1, 0, 0, -1, -277, 90.55)" gradientUnits="userSpaceOnUse"><stop offset="0" stop-color="#2e6ded"/><stop offset="1" stop-color="#579bf8"/></linearGradient><linearGradient id="linear-gradient-2" x1="323.6" y1="-12.16" x2="494.07" y2="-251.84" xlink:href="#linear-gradient"/></defs><g id="Layer_2" data-name="Layer 2"><g id="Layer_1-2" data-name="Layer 1"><circle class="cls-1" cx="185.25" cy="185.25" r="185.25"/><path class="cls-2" d="M232.93,185.49a28.32,28.32,0,0,0-8.22,2.29l-1.83,1a55.11,55.11,0,0,0-8.85,5.77c-7.09,7-10.93,15.25-11.24,25.13.44,10.41,4.72,18.64,12.37,25.93,9.57,7.78,19.27,8.48,31.31,7.61C255,251.75,261.94,245.58,267,239a35.52,35.52,0,0,0,5.6-27.44,37.49,37.49,0,0,0-15.1-20.59C250.18,186.89,241.36,184.45,232.93,185.49Zm56-86.08c7.49-.11,15,4.51,15.3,14.15.52,19.29,0,109.81,0,164.71H273v-8l-2.36,1.07c-15.51,6.84-31.42,9.55-48.32,5.16L220.2,276c-16.06-4.35-29.79-14.51-38-27.79-.72-1.22-1.42-2.45-2.12-3.68l-1-1.7c-6.45-12-6.9-29.41-3-42.14,7.13-17.24,21.18-30.06,39.32-37.89,14.08-5.21,31-5.8,45.15-.53q6.81,2.64,13.42,5.64V113.56C274,104.33,281.44,99.51,288.93,99.41Z"/><path class="cls-3" d="M68.32,99.82l2.78,0,9.14,0h3.15q8.27,0,16.53,0,8.53,0,17.06-.1,6.57,0,13.13,0c2.1,0,4.19,0,6.29,0,2.93,0,5.87,0,8.81,0l2.61,0c6,.06,9.51,1.48,14.46,5.23,2.93,4.52,3.8,8.55,3.58,14-.88,5.35-3.76,8.46-7.57,11.72-4,2.45-6.26,2.71-10.83,2.68h-2.12c-2.3,0-4.59,0-6.89-.08l-4.8,0c-4.19,0-8.39-.06-12.58-.11-5-.06-10.09-.08-15.13-.1-7.64-.05-15.29-.14-22.93-.22V174.3l14.57-.13,11.52,0q6.08,0,12.16-.09c3.9,0,7.8-.06,11.71-.06l4.46,0c2.09,0,4.18,0,6.26,0l3.6,0c4.55.59,7.35,2.52,10.48,6.08,2.35,4.45,1.82,9.1,1.29,14.06-1.79,5.64-3.67,7.86-8.57,10.45a32.78,32.78,0,0,1-6.8.39H139.6l-4.39-.05-4.52,0q-5.93,0-11.85-.08t-12.11-.07c-7.91,0-15.81-.11-23.72-.17V245.9c5.1-.05,10.21,0,15.47,0,3.24,0,6.48,0,9.73,0,5.14,0,10.28.06,15.42,0,4.15-.05,8.29,0,12.44,0,1.58,0,3.16,0,4.74,0,2.22,0,4.43,0,6.65,0,1.89,0,1.89,0,3.82,0,5.57.89,8.86,3.64,12.47,8.18a20,20,0,0,1,1.74,13c-1.93,5.61-4.6,9.68-9.64,12.17a78.83,78.83,0,0,1-9.35,0h-2.83c-3.07,0-6.14,0-9.21,0h-6.41c-4.48,0-9,0-13.44,0-5.74,0-11.47-.05-17.21,0-4.41,0-8.83,0-13.25,0-2.11,0-4.23,0-6.34,0-3,0-5.92,0-8.87,0-1.31,0-1.31,0-2.64,0-4.36-.07-7.13-.32-10.6-3.29-3.78-4.32-3.89-7.33-3.92-13.05,0-1.36,0-2.71,0-4.1s0-3,0-4.5l0-4.74q0-7.77-.06-15.55c0-1.78,0-3.57,0-5.35q0-11.15-.05-22.29,0-16-.12-31.92-.06-11.22-.07-22.45,0-6.7,0-13.41,0-6.3,0-12.61c0-2.28,0-4.55-.06-6.82.08-11.15.08-11.15,3.27-15.45C59.07,99.54,62.54,99.84,68.32,99.82Z"/></g></g></svg>